<svg xmlns="http://www.w3.org/2000/svg" xmlns:xlink="http://www.w3.org/1999/xlink" width="1080" zoomAndPan="magnify" viewBox="0 0 810 809.999993" height="1080" preserveAspectRatio="xMidYMid meet" version="1.0"><defs><clipPath id="e956def1f8"><path d="M 8.09375 7.972656 L 801.90625 7.972656 L 801.90625 801.785156 L 8.09375 801.785156 Z M 8.09375 7.972656 " clip-rule="nonzero"/></clipPath><clipPath id="d1d2de0a1f"><path d="M 405 7.972656 C 185.792969 7.972656 8.09375 185.671875 8.09375 404.878906 C 8.09375 624.085938 185.792969 801.785156 405 801.785156 C 624.207031 801.785156 801.90625 624.085938 801.90625 404.878906 C 801.90625 185.671875 624.207031 7.972656 405 7.972656 Z M 405 7.972656 " clip-rule="nonzero"/></clipPath><clipPath id="e2ccfeea12"><path d="M 114.207031 127.164062 L 696.21875 127.164062 L 696.21875 802.914062 L 114.207031 802.914062 Z M 114.207031 127.164062 " clip-rule="nonzero"/></clipPath><clipPath id="ee50c296b4"><path d="M 262 253 L 696.21875 253 L 696.21875 578 L 262 578 Z M 262 253 " clip-rule="nonzero"/></clipPath><clipPath id="7dccaaaf5b"><path d="M 154 132 L 658 132 L 658 802.914062 L 154 802.914062 Z M 154 132 " clip-rule="nonzero"/></clipPath></defs><g clip-path="url(#e956def1f8)"><g clip-path="url(#d1d2de0a1f)"><path fill="#8c52ff" d="M 8.09375 7.972656 L 801.90625 7.972656 L 801.90625 801.785156 L 8.09375 801.785156 Z M 8.09375 7.972656 " fill-opacity="1" fill-rule="nonzero"/></g></g><g clip-path="url(#e2ccfeea12)"><path fill="#c4ddff" d="M 125.898438 485.21875 C 126.335938 476.945312 133.257812 468.558594 145.679688 468.558594 C 149.496094 468.558594 153 469.039062 156.199219 469.859375 L 157.203125 510.101562 C 134.828125 507.558594 125.339844 495.816406 125.898438 485.21875 Z M 118.523438 208.273438 C 118.960938 200 125.898438 191.621094 138.304688 191.621094 C 142.269531 191.621094 145.894531 192.136719 149.191406 192.996094 L 150.214844 233.21875 C 127.550781 230.765625 117.964844 218.933594 118.523438 208.273438 Z M 659.597656 450.59375 C 659.570312 441.578125 659.542969 432.457031 659.542969 423.335938 C 672.597656 417.296875 681.675781 404.09375 681.675781 388.773438 L 681.675781 338.019531 C 681.675781 323.09375 673.09375 310.199219 660.589844 303.953125 C 660.765625 295.820312 660.960938 287.980469 661.1875 280.484375 C 662.210938 247.53125 660.453125 223.363281 657.308594 205.617188 L 657.308594 193.648438 C 657.308594 178.644531 648.625 165.683594 636.015625 159.480469 C 635.324219 159.003906 634.667969 158.621094 634.039062 158.296875 C 622.839844 131.949219 593.628906 133.789062 593.628906 133.789062 L 593.628906 133.800781 C 586.433594 129.710938 577.984375 127.167969 568.496094 127.167969 L 185.570312 140.167969 C 165.265625 140.167969 148.78125 156.648438 148.78125 176.953125 L 149.113281 189.847656 C 145.8125 189.042969 142.210938 188.566406 138.304688 188.566406 C 123.992188 188.566406 115.992188 198.410156 115.484375 208.109375 C 114.847656 220.242188 125.296875 233.65625 150.089844 236.269531 C 150.144531 236.269531 150.199219 236.285156 150.257812 236.285156 C 150.273438 236.285156 150.285156 236.269531 150.292969 236.269531 L 151.347656 277.855469 C 147.132812 276.464844 142.378906 275.601562 137.046875 275.601562 C 122.753906 275.601562 114.75 285.429688 114.234375 295.152344 C 113.589844 307.28125 124.046875 320.691406 148.835938 323.308594 L 149 323.308594 C 149.777344 323.308594 150.433594 322.738281 150.515625 321.945312 C 150.613281 321.113281 149.996094 320.367188 149.164062 320.273438 C 126.347656 317.871094 116.714844 306 117.273438 295.300781 C 117.710938 287.027344 124.640625 278.660156 137.046875 278.660156 C 142.457031 278.660156 147.242188 279.613281 151.429688 281.125 L 153.59375 367.199219 C 149.515625 365.898438 144.9375 365.113281 139.816406 365.113281 C 125.519531 365.113281 117.519531 374.941406 117.003906 384.640625 C 116.359375 396.773438 126.816406 410.1875 151.605469 412.800781 C 151.65625 412.816406 151.714844 412.816406 151.769531 412.816406 C 152.546875 412.816406 153.199219 412.230469 153.28125 411.453125 C 153.375 410.605469 152.765625 409.855469 151.933594 409.777344 C 129.113281 407.363281 119.476562 395.507812 120.039062 384.804688 C 120.472656 376.53125 127.410156 368.152344 139.816406 368.152344 C 145.007812 368.152344 149.613281 369.035156 153.679688 370.441406 L 156.117188 466.695312 C 152.914062 465.957031 149.4375 465.523438 145.679688 465.523438 C 131.367188 465.523438 123.363281 475.347656 122.859375 485.054688 C 122.21875 497.15625 132.632812 510.527344 157.289062 513.195312 L 158.539062 562.835938 C 154.703125 561.691406 150.421875 560.996094 145.679688 560.996094 C 131.691406 560.996094 123.871094 570.578125 123.363281 580.050781 C 122.738281 591.9375 133.054688 605.089844 157.519531 607.675781 L 157.628906 607.675781 C 158.148438 607.675781 158.582031 607.300781 158.636719 606.777344 C 158.695312 606.21875 158.296875 605.71875 157.738281 605.660156 C 134.597656 603.210938 124.824219 591.09375 125.394531 580.164062 C 125.847656 571.644531 132.949219 563.03125 145.679688 563.03125 C 150.476562 563.03125 154.765625 563.765625 158.597656 564.976562 L 160.953125 658.289062 C 160.953125 678.609375 180.363281 709.777344 200.6875 709.777344 L 534.027344 700.042969 C 530.671875 760.792969 562.921875 803.167969 562.921875 803.167969 C 575.09375 796.054688 581.183594 767.632812 581.183594 767.632812 C 606.5625 783.882812 624.828125 777.792969 624.828125 777.792969 C 610.703125 758.722656 603.703125 717.578125 600.734375 694.285156 C 601.136719 694.066406 601.519531 693.832031 601.898438 693.601562 L 601.957031 693.601562 C 606.019531 693.125 609.683594 692.113281 613.027344 690.640625 C 613.027344 690.660156 613.027344 690.667969 613.027344 690.667969 C 613.296875 691.21875 613.824219 691.527344 614.398438 691.527344 C 614.617188 691.527344 614.847656 691.488281 615.070312 691.378906 C 615.394531 691.21875 619.347656 689.210938 624.457031 683.679688 C 663.984375 675.414062 661.492188 632.648438 661.492188 632.648438 C 661.492188 632.648438 661.082031 610.976562 660.644531 577.351562 C 680.503906 576.058594 696.21875 559.554688 696.21875 539.378906 L 696.21875 488.625 C 696.21875 468.085938 679.945312 451.363281 659.597656 450.59375 " fill-opacity="1" fill-rule="nonzero"/></g><path fill="#1a1e2d" d="M 181.605469 473.632812 C 178.878906 473.632812 176.328125 474.324219 174.09375 475.539062 C 169.515625 471.832031 163.5625 468.425781 156.117188 466.695312 C 152.914062 465.957031 149.4375 465.523438 145.679688 465.523438 C 131.367188 465.523438 123.363281 475.347656 122.859375 485.054688 C 122.21875 497.15625 132.632812 510.527344 157.289062 513.195312 C 157.34375 513.195312 157.414062 513.210938 157.464844 513.210938 C 157.519531 513.210938 157.578125 513.226562 157.628906 513.226562 C 158.390625 513.226562 159.058594 512.636719 159.140625 511.863281 C 159.222656 511.019531 158.625 510.269531 157.78125 510.1875 C 157.589844 510.160156 157.414062 510.128906 157.203125 510.101562 C 134.828125 507.558594 125.339844 495.816406 125.898438 485.21875 C 126.335938 476.945312 133.257812 468.558594 145.679688 468.558594 C 149.496094 468.558594 153 469.039062 156.199219 469.859375 C 162.402344 471.421875 167.457031 474.246094 171.476562 477.339844 C 168.054688 480.230469 165.871094 484.546875 165.871094 489.375 C 165.871094 498.054688 172.921875 505.101562 181.605469 505.101562 C 190.300781 505.101562 197.332031 498.054688 197.332031 489.375 C 197.332031 480.675781 190.300781 473.632812 181.605469 473.632812 Z M 170.710938 295.164062 C 167.996094 297.992188 166.3125 301.824219 166.3125 306.058594 C 166.3125 314.746094 173.359375 321.789062 182.046875 321.789062 C 190.734375 321.789062 197.78125 314.746094 197.78125 306.058594 C 197.78125 297.367188 190.734375 290.324219 182.046875 290.324219 C 178.683594 290.324219 175.574219 291.390625 173.011719 293.1875 C 168.832031 288.023438 161.75 281.300781 151.335938 277.855469 C 147.132812 276.460938 142.378906 275.609375 137.046875 275.609375 C 122.746094 275.609375 114.746094 285.4375 114.234375 295.148438 C 113.59375 307.277344 124.050781 320.6875 148.839844 323.300781 C 148.898438 323.308594 148.953125 323.3125 149.003906 323.3125 C 149.773438 323.3125 150.433594 322.730469 150.515625 321.949219 C 150.609375 321.113281 150 320.363281 149.164062 320.277344 C 126.351562 317.867188 116.710938 306 117.273438 295.308594 C 117.710938 287.035156 124.640625 278.652344 137.046875 278.652344 C 142.460938 278.652344 147.238281 279.613281 151.421875 281.125 C 160.648438 284.457031 166.96875 290.515625 170.710938 295.164062 Z M 177.570312 196.691406 C 174.039062 196.691406 170.796875 197.859375 168.175781 199.824219 C 163.488281 195.722656 157.195312 191.796875 149.113281 189.847656 C 145.8125 189.042969 142.210938 188.566406 138.304688 188.566406 C 123.992188 188.566406 115.992188 198.410156 115.484375 208.109375 C 114.847656 220.242188 125.296875 233.65625 150.089844 236.269531 C 150.144531 236.269531 150.199219 236.285156 150.257812 236.285156 C 150.273438 236.285156 150.285156 236.269531 150.292969 236.269531 C 151.042969 236.257812 151.6875 235.683594 151.769531 234.921875 C 151.847656 234.074219 151.253906 233.324219 150.40625 233.246094 C 150.335938 233.230469 150.285156 233.21875 150.214844 233.21875 C 127.550781 230.765625 117.964844 218.933594 118.523438 208.273438 C 118.960938 200 125.898438 191.621094 138.304688 191.621094 C 142.269531 191.621094 145.894531 192.136719 149.191406 192.996094 C 156.199219 194.835938 161.730469 198.285156 165.914062 201.878906 C 163.398438 204.675781 161.84375 208.355469 161.84375 212.417969 C 161.84375 221.117188 168.875 228.160156 177.570312 228.160156 C 186.253906 228.160156 193.296875 221.117188 193.296875 212.417969 C 193.296875 203.738281 186.253906 196.691406 177.570312 196.691406 Z M 166.3125 584.335938 C 166.3125 593.023438 173.359375 600.070312 182.046875 600.070312 C 190.734375 600.070312 197.78125 593.023438 197.78125 584.335938 C 197.78125 575.648438 190.734375 568.605469 182.046875 568.605469 C 179.027344 568.605469 176.21875 569.464844 173.828125 570.941406 C 169.816406 567.699219 164.753906 564.679688 158.546875 562.832031 C 154.695312 561.691406 150.421875 560.992188 145.679688 560.992188 C 131.6875 560.992188 123.863281 570.578125 123.363281 580.050781 C 122.742188 591.945312 133.058594 605.09375 157.523438 607.675781 C 157.554688 607.683594 157.59375 607.683594 157.625 607.683594 C 158.140625 607.683594 158.578125 607.292969 158.636719 606.773438 C 158.695312 606.21875 158.289062 605.71875 157.730469 605.660156 C 134.59375 603.214844 124.816406 591.09375 125.394531 580.15625 C 125.839844 571.644531 132.953125 563.019531 145.679688 563.019531 C 150.46875 563.019531 154.765625 563.765625 158.597656 564.972656 C 164.003906 566.671875 168.484375 569.304688 172.097656 572.15625 C 168.570312 575.035156 166.3125 579.421875 166.3125 584.335938 Z M 166.3125 388.957031 C 166.3125 397.648438 173.359375 404.691406 182.046875 404.691406 C 190.734375 404.691406 197.78125 397.648438 197.78125 388.957031 C 197.78125 380.269531 190.734375 373.226562 182.046875 373.226562 C 177.796875 373.226562 173.949219 374.917969 171.121094 377.65625 C 166.863281 373.628906 161.070312 369.574219 153.601562 367.203125 C 149.515625 365.90625 144.933594 365.105469 139.816406 365.105469 C 125.515625 365.105469 117.511719 374.933594 117.003906 384.644531 C 116.363281 396.773438 126.816406 410.1875 151.613281 412.804688 C 151.664062 412.808594 151.722656 412.808594 151.769531 412.808594 C 152.539062 412.808594 153.199219 412.230469 153.285156 411.449219 C 153.371094 410.613281 152.765625 409.859375 151.929688 409.777344 C 129.125 407.371094 119.484375 395.5 120.042969 384.804688 C 120.480469 376.53125 127.410156 368.152344 139.816406 368.152344 C 145.011719 368.152344 149.617188 369.035156 153.679688 370.441406 C 160.238281 372.710938 165.355469 376.363281 169.148438 379.964844 C 167.367188 382.515625 166.3125 385.613281 166.3125 388.957031 Z M 613.730469 688.640625 C 613.882812 688.5625 629.953125 680.304688 639.546875 649.199219 C 644.953125 631.65625 644.375 521.761719 642.765625 426.808594 C 642.703125 426.808594 642.640625 426.808594 642.574219 426.800781 C 642.523438 420.125 642.464844 413.378906 642.40625 406.601562 C 641.136719 339.1875 639.519531 283.859375 639.476562 282.507812 C 639.449219 281.667969 640.113281 280.964844 640.957031 280.9375 C 641.804688 280.910156 642.496094 281.578125 642.523438 282.417969 C 642.570312 284.078125 642.75 290.292969 643.015625 299.964844 C 643.214844 299.964844 643.410156 299.949219 643.609375 299.949219 C 649.710938 299.949219 655.476562 301.398438 660.585938 303.949219 C 660.761719 295.820312 660.964844 287.976562 661.199219 280.492188 C 662.214844 247.535156 660.453125 223.367188 657.3125 205.625 L 657.3125 244.398438 C 657.3125 263.960938 642.554688 280.070312 623.5625 282.210938 L 631.761719 634.75 C 631.761719 650.972656 622.359375 681.628906 601.902344 693.597656 C 601.921875 693.597656 601.941406 693.597656 601.953125 693.59375 C 606.015625 693.128906 609.6875 692.117188 613.027344 690.648438 C 612.675781 689.898438 612.976562 689.003906 613.730469 688.640625 Z M 615.097656 155.8125 C 616.464844 155.664062 617.84375 155.582031 619.25 155.582031 C 625.273438 155.582031 630.964844 156.988281 636.019531 159.472656 C 635.328125 159.003906 634.664062 158.617188 634.035156 158.296875 C 622.832031 131.953125 593.636719 133.789062 593.636719 133.789062 L 593.625 133.800781 C 603.089844 139.183594 610.40625 147.25 615.097656 155.8125 Z M 659.589844 450.59375 C 659.746094 498.367188 660.214844 543.808594 660.648438 577.347656 C 661.085938 610.984375 661.484375 632.640625 661.484375 632.640625 C 661.484375 632.640625 663.984375 675.421875 624.460938 683.679688 C 630.109375 677.566406 637.199219 667.148438 642.453125 650.097656 C 648.039062 632.003906 647.476562 521.886719 645.855469 426.757812 C 650.722656 426.476562 655.335938 425.273438 659.542969 423.335938 C 659.542969 432.460938 659.5625 441.570312 659.589844 450.59375 " fill-opacity="1" fill-rule="nonzero"/><g clip-path="url(#ee50c296b4)"><path fill="#7ec0a4" d="M 542.214844 293.855469 C 540.625 289.109375 539.289062 285.144531 537.757812 280.59375 C 537.695312 280.675781 537.636719 280.746094 537.566406 280.808594 C 538.808594 284.710938 539.507812 288.800781 539.574219 292.890625 C 540.421875 293.199219 541.304688 293.511719 542.214844 293.855469 Z M 536.316406 274.039062 C 535.292969 270.902344 534.5 268.21875 533.511719 265.597656 C 533.265625 264.960938 532.378906 264.578125 531.773438 264.078125 C 531.488281 264.714844 530.890625 265.398438 530.972656 266 C 531.109375 266.953125 531.273438 267.921875 531.433594 268.882812 C 532.761719 270.628906 533.949219 272.5 534.953125 274.457031 C 535.390625 274.324219 535.828125 274.1875 536.316406 274.039062 Z M 523.902344 292.367188 C 523.683594 288.023438 520.003906 284.679688 515.652344 284.886719 L 293.4375 295.777344 C 289.085938 295.984375 285.75 299.671875 285.953125 304.011719 C 286.171875 308.355469 289.863281 311.695312 294.199219 311.492188 L 516.429688 300.605469 C 520.765625 300.398438 524.101562 296.703125 523.902344 292.367188 Z M 489.214844 320.980469 C 489.007812 316.628906 486.402344 313.238281 483.421875 313.386719 L 330.492188 320.867188 C 327.511719 321.019531 325.257812 324.660156 325.46875 328.992188 C 325.667969 333.328125 328.273438 336.734375 331.257812 336.585938 L 484.199219 329.101562 C 487.179688 328.949219 489.433594 325.3125 489.214844 320.980469 Z M 467.296875 256.921875 C 467.339844 257.421875 467.390625 257.925781 467.429688 258.433594 C 468.464844 258.351562 469.503906 258.257812 470.539062 258.171875 C 470.484375 257.640625 470.441406 257.125 470.386719 256.589844 C 469.351562 256.703125 468.316406 256.808594 467.296875 256.921875 Z M 543.632812 253.523438 L 543.632812 361.378906 L 269.871094 373.21875 L 262.46875 263.9375 Z M 696.214844 488.625 L 696.214844 539.375 C 696.214844 559.558594 680.503906 576.058594 660.648438 577.347656 C 660.214844 543.808594 659.746094 498.367188 659.589844 450.59375 C 679.945312 451.351562 696.214844 468.085938 696.214844 488.625 " fill-opacity="1" fill-rule="nonzero"/></g><g clip-path="url(#7dccaaaf5b)"><path fill="#f14975" d="M 601.445312 180.609375 C 601.210938 180.558594 600.542969 181.253906 600.542969 181.617188 C 600.535156 182.027344 601.0625 182.441406 601.527344 183.097656 C 602.046875 182.421875 602.664062 181.953125 602.601562 181.613281 C 602.515625 181.195312 601.910156 180.71875 601.445312 180.609375 Z M 260.523438 155.738281 C 260.097656 155.332031 259.730469 154.757812 259.234375 154.59375 C 259 154.519531 258.308594 155.195312 258.207031 155.621094 C 258.144531 155.90625 258.75 156.347656 259.175781 156.875 C 259.742188 156.398438 260.128906 156.066406 260.523438 155.738281 Z M 180.453125 339.972656 C 180.226562 340.777344 180.097656 341.601562 179.945312 342.421875 C 180.40625 342.496094 180.863281 342.570312 181.324219 342.644531 C 181.429688 341.804688 181.539062 340.957031 181.574219 340.117188 C 181.578125 340.078125 180.472656 339.914062 180.453125 339.972656 Z M 233.578125 446.082031 C 233.164062 446.070312 232.75 446.058594 232.332031 446.046875 C 232.332031 446.960938 232.316406 447.871094 232.390625 448.769531 C 232.390625 448.816406 233.164062 448.804688 233.578125 448.824219 C 233.578125 447.90625 233.578125 446.992188 233.578125 446.082031 Z M 285.226562 144.863281 C 285.726562 144.839844 286.484375 144.238281 286.578125 143.773438 C 286.660156 143.363281 285.976562 142.804688 285.453125 142.054688 C 284.847656 142.734375 284.167969 143.171875 284.140625 143.65625 C 284.109375 144.0625 284.859375 144.886719 285.226562 144.863281 Z M 580.117188 351.464844 C 579.699219 351.429688 578.867188 352.136719 578.835938 352.558594 C 578.804688 352.996094 579.46875 353.796875 579.914062 353.867188 C 580.390625 353.9375 580.964844 353.328125 581.746094 352.867188 C 581.050781 352.226562 580.613281 351.507812 580.117188 351.464844 Z M 488.007812 541.976562 C 488.054688 541.132812 488.132812 540.285156 488.097656 539.4375 C 488.097656 539.371094 487.003906 539.253906 486.996094 539.289062 C 486.8125 540.105469 486.710938 540.941406 486.59375 541.769531 C 487.0625 541.839844 487.539062 541.910156 488.007812 541.976562 Z M 271.175781 531.480469 C 271.175781 530.257812 271.175781 529.039062 271.175781 527.820312 C 270.820312 527.816406 270.464844 527.8125 270.113281 527.8125 C 270.183594 529.046875 270.25 530.28125 270.316406 531.515625 C 270.601562 531.5 270.890625 531.488281 271.175781 531.480469 Z M 462.109375 526.71875 C 462.167969 526.367188 462.226562 526.023438 462.285156 525.671875 C 461.257812 525.425781 460.21875 525.1875 459.1875 524.945312 C 459.128906 525.445312 459.070312 525.941406 459.015625 526.4375 C 460.042969 526.53125 461.078125 526.628906 462.109375 526.71875 Z M 197.78125 414.972656 C 197.34375 415.023438 196.90625 415.082031 196.46875 415.140625 C 196.597656 416 196.726562 416.851562 196.851562 417.707031 C 197.253906 417.644531 197.996094 417.570312 197.996094 417.511719 C 197.988281 416.664062 197.871094 415.820312 197.78125 414.972656 Z M 568.980469 156.753906 C 568.554688 156.667969 568.121094 156.582031 567.695312 156.492188 C 567.472656 157.566406 567.25 158.644531 567.027344 159.71875 C 567.429688 159.789062 567.835938 159.863281 568.238281 159.933594 C 568.484375 158.871094 568.730469 157.8125 568.980469 156.753906 Z M 472.535156 388.378906 C 471.757812 387.808594 471.257812 387.164062 470.773438 387.175781 C 470.371094 387.179688 469.824219 387.914062 469.675781 388.425781 C 469.601562 388.664062 470.335938 389.457031 470.648438 389.433594 C 471.199219 389.378906 471.699219 388.882812 472.535156 388.378906 Z M 381.980469 664.523438 C 381.980469 665.359375 381.980469 666.1875 381.980469 667.019531 C 382.457031 667.003906 382.929688 666.980469 383.402344 666.957031 C 383.367188 666.136719 383.324219 665.308594 383.292969 664.484375 C 382.855469 664.5 382.414062 664.511719 381.980469 664.523438 Z M 291.21875 453.492188 C 291.761719 453.59375 292.308594 453.699219 292.855469 453.800781 C 292.980469 452.792969 293.101562 451.792969 293.222656 450.785156 C 292.765625 450.71875 292.308594 450.648438 291.851562 450.578125 C 291.636719 451.546875 291.429688 452.515625 291.21875 453.492188 Z M 255.832031 624.257812 C 256.007812 625.285156 256.179688 626.304688 256.355469 627.332031 C 256.722656 627.285156 257.089844 627.234375 257.457031 627.183594 C 257.382812 626.140625 257.308594 625.101562 257.234375 624.058594 C 256.765625 624.128906 256.300781 624.191406 255.832031 624.257812 Z M 574.21875 331.339844 C 574.171875 331.773438 574.800781 332.652344 575.183594 332.6875 C 575.671875 332.730469 576.226562 332.125 577.308594 331.453125 C 576.511719 330.90625 576.007812 330.285156 575.503906 330.28125 C 575.042969 330.28125 574.273438 330.914062 574.21875 331.339844 Z M 231.773438 335.953125 C 232.214844 336.339844 232.667969 337.046875 233.097656 337.03125 C 233.582031 337.023438 234.046875 336.351562 234.777344 335.765625 C 234.003906 335.269531 233.457031 334.648438 233 334.707031 C 232.546875 334.757812 232.171875 335.503906 231.773438 335.953125 Z M 574.667969 631.695312 C 574.667969 632.726562 574.667969 633.761719 574.667969 634.792969 C 575.070312 634.78125 575.480469 634.765625 575.886719 634.75 C 575.8125 633.710938 575.730469 632.675781 575.65625 631.636719 C 575.328125 631.652344 574.992188 631.671875 574.667969 631.695312 Z M 575.667969 505.914062 C 575.667969 504.9375 575.667969 503.96875 575.667969 502.996094 C 575.289062 502.972656 574.910156 502.953125 574.53125 502.929688 C 574.421875 503.839844 574.308594 504.753906 574.199219 505.664062 C 574.6875 505.746094 575.175781 505.828125 575.667969 505.914062 Z M 502.710938 499.796875 C 502.710938 499.335938 502.03125 498.875 501.410156 498.125 C 500.910156 498.933594 500.273438 499.507812 500.375 499.894531 C 500.507812 500.417969 501.210938 500.789062 501.667969 501.222656 C 502.046875 500.75 502.707031 500.273438 502.710938 499.796875 Z M 470.542969 258.167969 C 470.488281 257.644531 470.441406 257.117188 470.386719 256.589844 C 469.351562 256.703125 468.324219 256.808594 467.289062 256.914062 C 467.339844 257.421875 467.386719 257.925781 467.433594 258.433594 C 468.472656 258.34375 469.503906 258.257812 470.542969 258.167969 Z M 229.582031 585.320312 C 229.597656 585.789062 230.257812 586.238281 230.632812 586.691406 C 231.097656 586.289062 231.835938 585.953125 231.949219 585.476562 C 232.035156 585.085938 231.363281 584.523438 230.835938 583.765625 C 230.257812 584.441406 229.574219 584.890625 229.582031 585.320312 Z M 443.671875 485.085938 C 444.136719 485.121094 444.605469 485.164062 445.074219 485.203125 C 445.152344 484.367188 445.230469 483.535156 445.316406 482.699219 C 444.816406 482.671875 444.316406 482.636719 443.820312 482.605469 C 443.769531 483.433594 443.71875 484.257812 443.671875 485.085938 Z M 445.5625 623.464844 C 445.675781 623.796875 445.792969 624.128906 445.902344 624.464844 C 447.144531 624.101562 448.382812 623.734375 449.621094 623.367188 C 449.480469 622.925781 449.34375 622.476562 449.203125 622.035156 C 447.988281 622.511719 446.777344 622.984375 445.5625 623.464844 Z M 209.679688 432.046875 C 209.210938 432.003906 208.683594 432.636719 208.183594 432.972656 C 208.636719 433.542969 209.003906 434.273438 209.589844 434.589844 C 209.8125 434.714844 210.546875 433.894531 211.261719 433.335938 C 210.617188 432.777344 210.179688 432.09375 209.679688 432.046875 Z M 265.878906 591.640625 C 266.414062 591.492188 266.9375 591.335938 267.464844 591.1875 C 267.148438 590.191406 266.828125 589.199219 266.507812 588.203125 C 266.054688 588.324219 265.601562 588.445312 265.15625 588.570312 C 265.394531 589.597656 265.640625 590.617188 265.878906 591.640625 Z M 439.328125 663.015625 C 439.589844 663.015625 439.84375 663.015625 440.101562 663.011719 C 440.101562 661.890625 440.101562 660.773438 440.101562 659.652344 C 439.84375 659.609375 439.589844 659.558594 439.328125 659.519531 C 439.328125 660.683594 439.328125 661.851562 439.328125 663.015625 Z M 368.6875 432.292969 C 368.570312 432.753906 368.453125 433.210938 368.335938 433.671875 C 369.503906 433.96875 370.65625 434.265625 371.824219 434.570312 C 371.9375 434.113281 372.046875 433.660156 372.160156 433.203125 C 371.003906 432.898438 369.84375 432.59375 368.6875 432.292969 Z M 566.390625 634.753906 C 566.492188 633.75 566.589844 632.738281 566.683594 631.726562 C 566.195312 631.722656 565.714844 631.714844 565.226562 631.703125 C 565.226562 632.707031 565.226562 633.707031 565.226562 634.703125 C 565.617188 634.722656 566.003906 634.738281 566.390625 634.753906 Z M 544.707031 412.050781 C 545.085938 412.402344 545.496094 413.070312 545.839844 413.039062 C 546.5 412.984375 547.125 412.527344 548.210938 412.039062 C 547.277344 411.335938 546.675781 410.578125 546.308594 410.679688 C 545.699219 410.847656 545.234375 411.566406 544.707031 412.050781 Z M 177.070312 189.679688 C 177.570312 189.832031 178.070312 189.988281 178.574219 190.136719 C 178.742188 189.21875 178.910156 188.300781 179.082031 187.382812 C 178.660156 187.292969 178.234375 187.203125 177.8125 187.113281 C 177.5625 187.96875 177.320312 188.824219 177.070312 189.679688 Z M 361.328125 455.765625 C 361.046875 456.570312 360.769531 457.367188 360.488281 458.171875 C 361.195312 458.203125 361.898438 458.234375 362.597656 458.265625 C 362.523438 457.464844 362.441406 456.664062 362.363281 455.859375 C 362.015625 455.828125 361.675781 455.796875 361.328125 455.765625 Z M 559.050781 653.46875 C 559.050781 652.367188 559.050781 651.265625 559.050781 650.164062 C 558.730469 650.167969 558.417969 650.175781 558.101562 650.179688 C 558.101562 651.277344 558.101562 652.378906 558.101562 653.476562 C 558.417969 653.46875 558.730469 653.46875 559.050781 653.46875 Z M 205.703125 358.5625 C 205.433594 357.675781 205.175781 356.789062 204.914062 355.902344 C 204.386719 356.097656 203.402344 356.394531 203.417969 356.472656 C 203.609375 357.347656 203.960938 358.183594 204.269531 359.035156 C 204.75 358.878906 205.222656 358.722656 205.703125 358.5625 Z M 540.359375 135.191406 C 540.398438 134.300781 540.308594 133.402344 540.25 132.507812 C 539.746094 132.535156 539.238281 132.566406 538.730469 132.59375 C 538.796875 133.507812 538.863281 134.417969 538.925781 135.335938 C 539.425781 135.292969 540.351562 135.265625 540.359375 135.191406 Z M 371.441406 188.191406 C 371.441406 187.132812 371.441406 186.074219 371.441406 185.007812 C 370.925781 185.035156 370.40625 185.054688 369.898438 185.078125 C 370.007812 186.136719 370.113281 187.195312 370.226562 188.257812 C 370.632812 188.234375 371.035156 188.214844 371.441406 188.191406 Z M 156.175781 238.074219 C 156.601562 238.855469 156.996094 239.660156 157.371094 240.46875 C 157.378906 240.46875 157.390625 240.46875 157.402344 240.46875 L 157.402344 236.847656 C 156.949219 236.90625 156.496094 236.960938 156.042969 237.019531 C 156.085938 237.371094 156.128906 237.722656 156.175781 238.074219 Z M 607.4375 578.171875 C 606.433594 577.78125 605.445312 577.363281 604.417969 577.058594 C 604.34375 577.039062 604.011719 577.914062 603.804688 578.378906 C 604.832031 578.765625 605.859375 579.160156 606.886719 579.550781 C 607.070312 579.09375 607.253906 578.632812 607.4375 578.171875 Z M 522.160156 575.851562 C 522.230469 575.355469 521.4375 574.738281 520.84375 573.921875 C 520.167969 574.648438 519.355469 575.183594 519.429688 575.507812 C 519.574219 576.152344 520.222656 576.6875 520.664062 577.261719 C 521.191406 576.796875 522.082031 576.382812 522.160156 575.851562 Z M 259.496094 173.242188 C 260.511719 173.242188 261.535156 173.242188 262.550781 173.242188 C 262.527344 172.609375 262.5 171.976562 262.46875 171.339844 C 261.550781 171.480469 260.597656 171.535156 259.734375 171.820312 C 259.523438 171.894531 259.566406 172.746094 259.496094 173.242188 Z M 208.378906 366.800781 C 208.40625 366.292969 207.558594 365.734375 206.882812 364.953125 C 206.3125 365.746094 205.59375 366.332031 205.703125 366.691406 C 205.878906 367.332031 206.554688 367.832031 207.015625 368.398438 C 207.507812 367.863281 208.34375 367.359375 208.378906 366.800781 Z M 549.476562 275.421875 C 548.855469 275.726562 548.28125 276.328125 547.976562 276.957031 C 547.878906 277.152344 548.785156 278.203125 549.105469 278.144531 C 549.734375 278.035156 550.269531 277.417969 551.074219 276.855469 C 550.339844 276.179688 549.679688 275.328125 549.476562 275.421875 Z M 399.136719 666.253906 C 399.285156 666.710938 399.441406 667.167969 399.589844 667.621094 C 400.605469 667.351562 401.628906 667.074219 402.644531 666.796875 C 402.484375 666.230469 402.320312 665.671875 402.15625 665.109375 C 401.148438 665.492188 400.144531 665.875 399.136719 666.253906 Z M 514.648438 444.535156 C 514.667969 445.027344 514.695312 445.515625 514.71875 446.007812 C 515.78125 445.9375 516.851562 445.90625 517.902344 445.730469 C 517.996094 445.714844 517.945312 444.796875 517.960938 444.296875 C 516.851562 444.375 515.75 444.457031 514.648438 444.535156 Z M 378.558594 434.132812 C 378.558594 432.410156 378.558594 430.683594 378.558594 428.957031 C 378.328125 428.953125 378.105469 428.953125 377.878906 428.949219 C 377.878906 430.6875 377.878906 432.429688 377.878906 434.164062 C 378.105469 434.15625 378.328125 434.144531 378.558594 434.132812 Z M 252.664062 415.089844 C 252.464844 417.957031 252.90625 418.199219 256.648438 416.703125 C 254.84375 415.972656 253.804688 415.550781 252.664062 415.089844 Z M 608.039062 152.152344 C 607.824219 152.164062 607.675781 153.398438 607.210938 155.113281 C 609.226562 154.148438 610.183594 153.691406 611.140625 153.234375 C 610.070312 152.386719 609.050781 152.105469 608.039062 152.152344 Z M 538.402344 511.230469 C 537.441406 510.816406 536.738281 510.226562 536.285156 510.378906 C 535.542969 510.628906 534.976562 511.363281 534.332031 511.890625 C 534.867188 512.402344 535.378906 513.269531 535.949219 513.3125 C 536.449219 513.351562 537.019531 512.460938 538.402344 511.230469 Z M 491.75 417.6875 C 492.203125 417.574219 492.648438 417.464844 493.105469 417.351562 C 492.828125 415.960938 492.554688 414.574219 492.277344 413.179688 C 491.753906 413.285156 491.234375 413.386719 490.707031 413.492188 C 491.058594 414.886719 491.398438 416.292969 491.75 417.6875 Z M 529.4375 664.582031 C 529.960938 664.570312 530.476562 664.558594 530.992188 664.554688 C 530.945312 663.46875 530.898438 662.386719 530.847656 661.308594 C 530.378906 661.300781 529.90625 661.289062 529.4375 661.28125 C 529.4375 662.375 529.4375 663.480469 529.4375 664.582031 Z M 295.800781 236.976562 C 295.546875 235.554688 295.285156 234.132812 295.023438 232.71875 C 294.484375 232.835938 293.949219 232.945312 293.410156 233.0625 C 293.75 234.476562 294.082031 235.878906 294.417969 237.292969 C 294.878906 237.191406 295.339844 237.078125 295.800781 236.976562 Z M 574.75 479.320312 C 575.019531 479.320312 575.289062 479.320312 575.5625 479.3125 C 575.5625 477.898438 575.5625 476.480469 575.5625 475.066406 C 575.289062 475.066406 575.019531 475.066406 574.75 475.070312 C 574.75 476.488281 574.75 477.902344 574.75 479.320312 Z M 231.800781 575.035156 C 232.0625 576.378906 232.316406 577.722656 232.574219 579.066406 C 232.960938 579.011719 233.34375 578.953125 233.726562 578.894531 C 233.609375 577.527344 233.492188 576.160156 233.371094 574.789062 C 232.847656 574.871094 232.320312 574.957031 231.800781 575.035156 Z M 610.695312 648.738281 C 610.753906 649.316406 610.816406 649.902344 610.878906 650.488281 C 612.050781 650.355469 613.222656 650.226562 614.394531 650.09375 C 614.207031 649.640625 614.0625 648.832031 613.8125 648.796875 C 612.792969 648.644531 611.734375 648.738281 610.695312 648.738281 Z M 473.105469 227.929688 C 473.167969 227.425781 473.226562 226.917969 473.289062 226.417969 C 472.203125 226.195312 471.125 225.972656 470.046875 225.75 C 469.988281 226.351562 469.824219 227.46875 469.898438 227.484375 C 470.949219 227.71875 472.027344 227.808594 473.105469 227.929688 Z M 390.089844 205.351562 C 390.132812 204.925781 389.042969 203.9375 388.765625 204.035156 C 388.039062 204.304688 387.378906 204.953125 386.953125 205.613281 C 386.832031 205.804688 387.609375 206.570312 388.824219 208.242188 C 389.414062 206.992188 390.015625 206.191406 390.089844 205.351562 Z M 586.007812 624.597656 C 588.0625 624.292969 589.367188 624.105469 591.316406 623.820312 C 589.109375 621.414062 587.773438 621.28125 586.007812 624.597656 Z M 274.980469 602.773438 C 275.910156 602.988281 276.851562 603.390625 277.757812 603.316406 C 278.128906 603.285156 278.40625 602.214844 278.730469 601.613281 C 277.601562 601.421875 276.476562 601.230469 275.347656 601.042969 C 275.222656 601.617188 275.101562 602.199219 274.980469 602.773438 Z M 506.496094 553.621094 C 506.21875 553.652344 506.070312 554.613281 505.863281 555.15625 C 507.007812 555.265625 508.152344 555.382812 509.300781 555.496094 C 509.382812 554.910156 509.460938 554.320312 509.542969 553.726562 C 508.523438 553.667969 507.492188 553.488281 506.496094 553.621094 Z M 618.359375 178.527344 C 618.46875 177.894531 618.570312 177.257812 618.667969 176.617188 C 618.511719 175.796875 618.351562 174.984375 618.191406 174.164062 C 618.003906 174.132812 617.808594 174.09375 617.625 174.058594 C 617.257812 175.371094 616.890625 176.6875 616.53125 178.003906 C 617.140625 178.179688 617.75 178.355469 618.359375 178.527344 Z M 561.132812 615.035156 C 560.765625 615.035156 560.390625 615.03125 560.03125 615.023438 C 560.105469 616.535156 560.15625 618.046875 560.300781 619.554688 C 560.308594 619.625 561.074219 619.625 561.496094 619.660156 C 561.503906 618.28125 561.535156 616.910156 561.515625 615.535156 C 561.515625 615.367188 561.265625 615.207031 561.132812 615.035156 Z M 422.566406 634.011719 C 422.933594 633.996094 423.300781 633.976562 423.667969 633.960938 C 423.667969 632.390625 423.667969 630.828125 423.667969 629.253906 C 423.226562 629.273438 422.78125 629.28125 422.339844 629.296875 C 422.417969 630.867188 422.492188 632.441406 422.566406 634.011719 Z M 199.300781 702.824219 C 199.679688 702.800781 200.046875 702.78125 200.421875 702.761719 C 200.421875 701.359375 200.421875 699.964844 200.421875 698.566406 C 199.898438 698.582031 199.375 698.601562 198.855469 698.613281 C 199.007812 700.019531 199.160156 701.421875 199.300781 702.824219 Z M 277.433594 436.945312 C 277.996094 436.871094 278.554688 436.800781 279.117188 436.730469 C 278.90625 435.167969 278.699219 433.605469 278.488281 432.039062 C 277.945312 432.109375 277.402344 432.179688 276.863281 432.253906 C 277.054688 433.8125 277.242188 435.378906 277.433594 436.945312 Z M 423.328125 495.140625 C 421.78125 494.699219 420.226562 494.257812 418.679688 493.816406 C 418.542969 494.246094 418.410156 494.683594 418.277344 495.121094 C 419.824219 495.695312 421.371094 496.269531 422.917969 496.839844 C 423.058594 496.277344 423.191406 495.707031 423.328125 495.140625 Z M 522.398438 643.53125 C 522.703125 643.53125 523.007812 643.523438 523.304688 643.523438 C 523.304688 641.859375 523.304688 640.191406 523.304688 638.53125 C 523.007812 638.53125 522.703125 638.535156 522.398438 638.535156 C 522.398438 640.203125 522.398438 641.867188 522.398438 643.53125 Z M 227.898438 308.660156 C 227.546875 308.6875 227.195312 308.714844 226.847656 308.742188 C 226.847656 310.472656 226.847656 312.210938 226.847656 313.941406 C 227.195312 313.941406 227.546875 313.941406 227.898438 313.941406 C 227.898438 312.179688 227.898438 310.421875 227.898438 308.660156 Z M 430.9375 189.507812 C 431.113281 187.984375 431.289062 186.460938 431.46875 184.933594 C 428.15625 186.355469 428.855469 187.910156 429.824219 189.46875 C 430.195312 189.480469 430.566406 189.492188 430.9375 189.507812 Z M 333.507812 622.914062 C 333.644531 620.683594 333.742188 619.152344 333.847656 617.480469 C 330.941406 618.171875 330.828125 619.273438 333.507812 622.914062 Z M 255.046875 517.765625 C 255.171875 516.203125 255.316406 514.679688 255.363281 513.160156 C 255.363281 513.105469 254.390625 513.027344 253.867188 512.960938 C 253.921875 514.5 253.976562 516.039062 254.039062 517.574219 C 254.039062 517.597656 254.230469 517.613281 255.046875 517.765625 Z M 388.269531 513.6875 C 389.09375 513.042969 389.925781 512.402344 390.9375 511.625 C 389.90625 510.539062 389.152344 509.75 387.59375 508.117188 C 387.464844 510.5625 387.390625 511.988281 387.316406 513.417969 C 387.632812 513.511719 387.949219 513.59375 388.269531 513.6875 Z M 243.8125 632.398438 C 244.726562 634.429688 245.308594 635.714844 245.886719 636.996094 C 246.414062 636.917969 246.9375 636.832031 247.464844 636.746094 C 247.238281 635.441406 247.191406 634.070312 246.695312 632.875 C 246.542969 632.5 245.207031 632.597656 243.8125 632.398438 Z M 485.480469 420.359375 C 485.480469 418.667969 485.480469 416.972656 485.480469 414.402344 C 482.550781 416.855469 483.90625 418.609375 485.480469 420.359375 Z M 531.484375 694.769531 C 531.5625 695.304688 531.636719 695.839844 531.710938 696.375 C 533.105469 696.160156 534.5 695.941406 536.4375 695.632812 C 534.140625 692.046875 532.792969 693.117188 531.484375 694.769531 Z M 603.6875 670.347656 C 603.910156 671.117188 604.128906 671.886719 604.351562 672.65625 C 605.636719 672.285156 606.925781 671.914062 608.207031 671.539062 C 608.121094 671.023438 608.039062 670.507812 607.953125 669.996094 C 606.53125 670.113281 605.109375 670.230469 603.6875 670.347656 Z M 414.828125 677.773438 C 414.917969 678.375 415.007812 678.972656 415.101562 679.574219 C 416.289062 679.492188 417.484375 679.417969 418.671875 679.339844 C 418.585938 678.488281 418.503906 677.640625 418.421875 676.792969 C 417.222656 677.121094 416.019531 677.449219 414.828125 677.773438 Z M 370.039062 463.398438 C 370.039062 465.214844 369.980469 467.035156 370.09375 468.847656 C 370.113281 469.183594 370.847656 469.746094 371.191406 469.699219 C 371.550781 469.648438 372.136719 468.972656 372.101562 468.628906 C 371.929688 466.824219 371.589844 465.035156 371.308594 463.246094 C 370.882812 463.292969 370.460938 463.347656 370.039062 463.398438 Z M 388.742188 676.320312 C 389.988281 675.71875 391.085938 674.839844 392.773438 673.683594 C 390.980469 672.632812 390 671.835938 389.824219 671.988281 C 388.851562 672.824219 388.015625 673.851562 387.304688 674.925781 C 387.226562 675.042969 388.527344 676.425781 388.742188 676.320312 Z M 168.699219 188.007812 C 165.371094 189.914062 165.339844 190.339844 168.390625 192.863281 C 170.28125 191.34375 171.011719 189.796875 168.699219 188.007812 Z M 155.722656 207.722656 C 155.03125 208.621094 154.984375 210.019531 154.664062 211.207031 C 156.066406 210.464844 157.460938 209.722656 158.859375 208.976562 C 158.753906 208.476562 158.648438 207.980469 158.546875 207.488281 C 157.570312 207.539062 156.113281 207.214844 155.722656 207.722656 Z M 509.605469 185.78125 C 509.636719 185.050781 509.664062 184.316406 509.695312 183.585938 C 508.359375 183.464844 507.011719 183.34375 505.675781 183.21875 C 505.722656 184.078125 505.640625 185.625 505.839844 185.667969 C 507.0625 185.902344 508.34375 185.78125 509.605469 185.78125 Z M 315.09375 621.445312 C 313.347656 623.277344 312.785156 624.882812 315.308594 626.445312 C 318.144531 624.617188 317.695312 623.0625 315.09375 621.445312 Z M 252.6875 649.378906 C 253.832031 649.710938 255.128906 649.515625 256.375 649.515625 C 256.460938 648.859375 256.546875 648.210938 256.632812 647.554688 C 255.230469 647.261719 253.832031 646.96875 252.429688 646.675781 C 252.503906 647.617188 252.367188 649.289062 252.6875 649.378906 Z M 583.957031 418.082031 C 582.824219 414.417969 582.605469 414.34375 579.160156 416.53125 C 580.164062 418.9375 581.378906 420.492188 583.957031 418.082031 Z M 162.363281 296.925781 C 160 298.328125 161.246094 299.875 163.289062 302.40625 C 164.003906 300.089844 164.460938 298.601562 164.917969 297.117188 C 164.058594 297.03125 162.964844 296.5625 162.363281 296.925781 Z M 239.175781 313.136719 C 238.375 313.527344 237.507812 313.929688 237.546875 314.1875 C 237.761719 315.496094 238.515625 316.722656 239.0625 317.976562 C 239.722656 317.734375 240.382812 317.488281 241.039062 317.238281 C 240.804688 316.257812 240.5625 315.273438 240.328125 314.289062 C 239.9375 313.910156 239.550781 313.527344 239.175781 313.136719 Z M 323.566406 406.566406 C 323.085938 407.070312 323.257812 408.195312 323.125 409.035156 C 324.65625 408.949219 326.1875 408.863281 327.71875 408.785156 C 327.730469 408.328125 327.742188 407.875 327.75 407.417969 C 326.605469 406.125 325.425781 404.601562 323.566406 406.566406 Z M 252.296875 144.507812 C 250.589844 144.507812 248.886719 144.507812 246.191406 144.507812 C 247.222656 145.984375 247.992188 147.628906 248.378906 147.542969 C 249.90625 147.203125 251.324219 146.324219 252.773438 145.640625 C 252.617188 145.265625 252.457031 144.886719 252.296875 144.507812 Z M 577.484375 449.457031 C 578.402344 449.492188 579.324219 449.53125 580.242188 449.566406 C 580.15625 447.949219 580.074219 446.332031 579.984375 444.710938 C 579.363281 444.6875 578.738281 444.660156 578.109375 444.632812 C 577.902344 446.242188 577.695312 447.847656 577.484375 449.457031 Z M 352.570312 550.289062 C 352.210938 550.300781 351.84375 550.308594 351.480469 550.328125 C 351.480469 551.199219 351.171875 552.242188 351.542969 552.914062 C 352.261719 554.222656 353.359375 555.324219 354.300781 556.519531 C 354.632812 555.875 355.40625 555.027344 355.21875 554.621094 C 354.503906 553.101562 353.480469 551.722656 352.570312 550.289062 Z M 606.371094 454.433594 C 605.648438 454.332031 604.921875 454.238281 604.203125 454.136719 C 603.925781 455.46875 603.457031 456.808594 603.511719 458.128906 C 603.523438 458.464844 605.1875 458.734375 606.09375 459.039062 C 606.191406 457.507812 606.273438 455.96875 606.371094 454.433594 Z M 285.574219 258.433594 L 285.574219 254.796875 C 284.84375 254.695312 284.121094 254.59375 283.394531 254.488281 C 283.121094 255.996094 282.835938 257.496094 282.554688 259.003906 C 282.949219 259.0625 283.335938 259.121094 283.722656 259.179688 C 284.328125 258.917969 284.945312 258.671875 285.574219 258.433594 Z M 623.316406 503.984375 C 623.003906 505.378906 622.574219 506.773438 622.492188 508.191406 C 622.480469 508.367188 624.296875 508.648438 625.273438 508.878906 C 625.273438 507.328125 625.273438 505.773438 625.273438 504.226562 C 624.617188 504.140625 623.972656 504.058594 623.316406 503.984375 Z M 556.910156 672.226562 C 556.011719 671.082031 555.488281 670.410156 554.972656 669.746094 C 554.171875 670.894531 553.226562 671.976562 552.675781 673.234375 C 552.511719 673.59375 553.453125 674.453125 553.890625 675.089844 C 554.796875 674.234375 555.703125 673.371094 556.910156 672.226562 Z M 567.429688 183.863281 C 567.367188 183.460938 567.304688 183.050781 567.238281 182.644531 C 565.710938 182.808594 564.179688 182.980469 562.648438 183.144531 C 562.941406 184.039062 562.96875 185.28125 563.585938 185.75 C 566.007812 187.597656 566.441406 185.09375 567.429688 183.863281 Z M 398.429688 172.269531 C 397.332031 171.699219 396.273438 170.808594 395.117188 170.660156 C 394.183594 170.539062 393.128906 171.304688 392.128906 171.671875 C 393.371094 172.375 394.609375 173.070312 396.085938 173.890625 C 397.039062 173.238281 397.730469 172.753906 398.429688 172.269531 Z M 253.359375 386.414062 C 251.914062 386.757812 250.460938 387.410156 249.28125 388.292969 C 248.988281 388.515625 249.695312 390.070312 249.964844 391.113281 C 252.792969 389.40625 253.976562 388.691406 255.15625 387.972656 C 254.550781 387.417969 253.808594 386.308594 253.359375 386.414062 Z M 572.9375 462.867188 C 572.855469 462.160156 572.777344 461.445312 572.703125 460.738281 C 571.019531 460.738281 569.34375 460.738281 567.660156 460.738281 C 567.828125 461.710938 568.039062 463.539062 568.164062 463.53125 C 569.761719 463.46875 571.347656 463.132812 572.9375 462.867188 Z M 227.640625 411.132812 C 227.851562 411.4375 228.058594 411.742188 228.261719 412.042969 C 229.144531 411.691406 230.550781 411.558594 230.804688 410.945312 C 231.417969 409.457031 231.503906 407.742188 231.800781 406.125 C 230.921875 406.316406 229.574219 406.222656 229.25 406.757812 C 228.46875 408.066406 228.148438 409.652344 227.640625 411.132812 Z M 513.515625 396.167969 C 513.414062 397.25 512.832031 398.664062 513.300781 399.351562 C 515.117188 401.980469 516.40625 399.457031 517.890625 398.84375 C 517.980469 398.46875 518.078125 398.089844 518.175781 397.710938 C 516.621094 397.199219 515.070312 396.683594 513.515625 396.167969 Z M 303.828125 172.140625 C 300.949219 171.042969 298.265625 170.019531 295.582031 169 C 295.480469 169.308594 295.378906 169.617188 295.273438 169.925781 C 298 173.289062 301.859375 174.5625 303.828125 172.140625 Z M 512.90625 560.6875 C 513.121094 560.816406 513.988281 560.324219 514.15625 559.9375 C 514.925781 558.175781 515.546875 556.347656 516.320312 554.277344 C 516.03125 553.902344 515.746094 553.242188 515.242188 552.992188 C 514.941406 552.84375 514.039062 553.207031 513.890625 553.546875 C 513.09375 555.417969 512.367188 557.332031 511.808594 559.285156 C 511.707031 559.648438 512.410156 560.398438 512.90625 560.6875 Z M 534.054688 167.671875 C 534.335938 167.980469 534.625 168.296875 534.910156 168.605469 C 536.488281 168.605469 538.09375 168.765625 539.640625 168.519531 C 540.167969 168.429688 540.535156 167.328125 540.976562 166.695312 C 539.382812 166.410156 537.78125 165.90625 536.195312 165.953125 C 535.464844 165.96875 534.765625 167.066406 534.054688 167.671875 Z M 205.863281 331.160156 C 206.71875 329.519531 207.699219 327.929688 208.34375 326.207031 C 208.507812 325.765625 207.632812 324.929688 206.621094 323.253906 C 205.402344 325.957031 204.488281 327.671875 203.933594 329.492188 C 203.832031 329.820312 205.179688 330.597656 205.863281 331.160156 Z M 414.148438 555.164062 C 413.46875 555.511719 412.503906 555.683594 412.152344 556.234375 C 411.328125 557.539062 410.800781 559.03125 410.054688 560.660156 C 411.148438 561.144531 412.121094 561.582031 413.523438 562.203125 C 414.128906 560.234375 414.730469 558.777344 414.984375 557.257812 C 415.085938 556.625 414.453125 555.863281 414.148438 555.164062 Z M 529.027344 671.453125 C 527.851562 671.230469 526.527344 671.429688 525.34375 671.738281 C 524.78125 671.878906 524.027344 672.710938 524.027344 673.226562 C 524.027344 673.734375 524.800781 674.5 525.382812 674.675781 C 526.207031 674.925781 527.164062 674.738281 528.070312 674.738281 C 528.070312 674.75 528.070312 674.765625 528.070312 674.777344 C 528.40625 674.777344 528.816406 674.898438 529.074219 674.753906 C 529.976562 674.238281 530.828125 673.625 531.699219 673.050781 C 530.8125 672.492188 529.988281 671.636719 529.027344 671.453125 Z M 350.277344 175.28125 C 348.542969 174.328125 346.871094 173.207031 345.03125 172.539062 C 344.53125 172.359375 343.527344 173.582031 342.109375 174.648438 C 344.746094 175.789062 346.328125 176.714844 348.03125 177.070312 C 348.625 177.199219 349.519531 175.914062 350.277344 175.28125 Z M 400.167969 500.054688 C 400.21875 499.46875 399.5625 498.828125 399.226562 498.214844 C 398.6875 498.660156 397.933594 499.003906 397.644531 499.578125 C 397.152344 500.566406 397.035156 501.742188 396.589844 502.769531 C 395.5625 505.167969 396.839844 505.746094 399.230469 505.972656 C 399.597656 503.816406 400.007812 501.945312 400.167969 500.054688 Z M 223.164062 594.234375 C 223.542969 594.824219 225.4375 595.191406 226.003906 594.78125 C 228.6875 592.859375 227.125 590.730469 225.65625 588.058594 C 224.441406 590.390625 221.316406 591.375 223.164062 594.234375 Z M 253.992188 169.4375 C 254.964844 168.851562 256.515625 168.375 256.738281 167.550781 C 257.1875 165.902344 259.558594 164.042969 256.851562 162.296875 C 256.679688 162.183594 256.417969 162.210938 255.730469 162.097656 C 255.355469 162.753906 254.714844 163.5 254.453125 164.367188 C 254 165.90625 253.761719 167.515625 253.476562 169.101562 C 253.464844 169.191406 253.90625 169.488281 253.992188 169.4375 Z M 511.539062 588.765625 C 513.304688 587.433594 514.871094 586.355469 516.304688 585.113281 C 516.6875 584.785156 516.921875 583.890625 516.761719 583.40625 C 516.585938 582.878906 515.914062 582.203125 515.398438 582.136719 C 512.738281 581.824219 510.171875 585.710938 511.539062 588.765625 Z M 174.609375 533.65625 C 175.253906 533.566406 175.898438 533.46875 176.03125 533.15625 C 176.777344 531.429688 177.148438 529.550781 177.925781 526.804688 C 176.566406 527.140625 175.183594 527.242188 174.644531 527.511719 C 174.640625 529.5625 174.628906 531.613281 174.609375 533.65625 Z M 442.617188 173.546875 C 441.894531 172.261719 441.253906 171.132812 440.535156 169.855469 C 438.492188 171.734375 437.011719 173.089844 435.238281 174.710938 C 438.855469 177.542969 440.511719 173.753906 442.617188 173.546875 Z M 564.214844 503.976562 C 563.417969 506.039062 562.648438 507.578125 562.273438 509.21875 C 562.101562 509.9375 562.722656 510.835938 562.992188 511.65625 C 563.75 511.226562 564.820312 510.980469 565.214844 510.320312 C 566.0625 508.894531 566.566406 507.257812 567.304688 505.488281 C 566.285156 504.992188 565.429688 504.566406 564.214844 503.976562 Z M 199.503906 271.003906 C 201.507812 271.214844 203.546875 271.402344 205.519531 271.164062 C 205.871094 271.121094 205.996094 269.125 206.453125 266.914062 C 203.347656 267.882812 201.191406 268.539062 199.074219 269.300781 C 199.007812 269.328125 199.292969 270.980469 199.503906 271.003906 Z M 280.605469 498.390625 C 280.972656 497.222656 281.28125 496.261719 281.628906 495.167969 C 279.097656 494.34375 276.992188 493.660156 274.902344 492.980469 C 273.71875 495.882812 273.71875 495.882812 280.605469 498.390625 Z M 488.542969 141.253906 C 488.414062 140.6875 488.28125 140.144531 488.160156 139.621094 C 487.480469 139.65625 486.796875 139.679688 486.109375 139.679688 L 484.789062 139.679688 C 484.847656 140.519531 484.90625 141.378906 484.964844 142.261719 C 486.46875 141.839844 487.308594 141.605469 488.542969 141.253906 Z M 400.894531 649.652344 C 407.148438 645.292969 407.484375 644.78125 405.425781 642.410156 C 398.363281 647.011719 398.246094 647.203125 400.894531 649.652344 Z M 372.101562 223.996094 C 372.734375 223.746094 373.539062 222.847656 373.515625 222.238281 C 373.457031 220.105469 373.085938 217.976562 372.691406 214.710938 C 371.277344 215.746094 369.871094 216.277344 369.84375 216.878906 C 369.738281 218.902344 370.023438 220.960938 370.402344 222.964844 C 370.492188 223.4375 371.707031 224.15625 372.101562 223.996094 Z M 531.515625 574.210938 C 532.175781 572.808594 532.769531 571.378906 533.371094 569.902344 C 532.695312 569.664062 532.035156 569.375 531.417969 569.015625 C 531.03125 568.785156 530.664062 568.539062 530.3125 568.285156 C 529.789062 570.023438 529.292969 571.703125 528.917969 573.410156 C 528.808594 573.886719 529.523438 574.714844 530.054688 575.078125 C 530.273438 575.222656 531.300781 574.65625 531.515625 574.210938 Z M 585.933594 541.722656 C 588.398438 537.621094 588.265625 536.921875 584.558594 534.320312 C 581.140625 536.78125 581.507812 538.730469 585.933594 541.722656 Z M 505.800781 220.855469 C 506.558594 219.097656 507.246094 217.246094 507.492188 215.371094 C 507.589844 214.558594 506.527344 213.59375 505.996094 212.703125 C 505.601562 212.902344 505.203125 213.105469 504.8125 213.300781 C 504.195312 215.46875 503.476562 217.617188 503.03125 219.824219 C 502.902344 220.457031 503.558594 221.25 503.855469 221.96875 C 504.519531 221.605469 505.566406 221.402344 505.800781 220.855469 Z M 218.917969 462.855469 C 218.421875 464.597656 217.824219 466.316406 217.160156 468.015625 C 218.015625 467.125 218.835938 466.25 219.570312 465.320312 C 219.949219 464.84375 219.9375 463.484375 219.554688 463.121094 C 219.410156 462.996094 219.183594 462.910156 218.917969 462.855469 Z M 470.136719 670.671875 C 468.902344 672.125 467.980469 673.851562 466.777344 675.691406 C 468.617188 677.609375 469.972656 677.863281 471.125 675.453125 C 471.613281 674.429688 472.433594 673.53125 472.753906 672.472656 C 473.023438 671.585938 472.785156 670.550781 472.761719 669.582031 C 471.867188 669.925781 470.691406 670.027344 470.136719 670.671875 Z M 371.3125 491.363281 C 370.691406 491.824219 369.742188 492.164062 369.496094 492.785156 C 368.675781 494.859375 368.101562 497.039062 367.464844 499.183594 C 367.410156 499.359375 367.574219 499.59375 367.6875 499.964844 C 368.441406 500.179688 369.277344 500.40625 370.539062 500.757812 C 371.269531 498.148438 372.027344 495.917969 372.445312 493.625 C 372.570312 492.960938 371.71875 492.117188 371.3125 491.363281 Z M 477.058594 180.527344 C 476.0625 180.351562 475.019531 180.167969 473.613281 179.917969 C 473.164062 182.839844 472.753906 185.464844 472.304688 188.347656 C 475.71875 188.707031 476.765625 186.824219 477.058594 180.527344 Z M 461.8125 434.566406 C 462.851562 434.457031 463.785156 433.417969 464.765625 432.796875 C 464.019531 431.941406 463.410156 430.863281 462.488281 430.285156 C 461.007812 429.347656 459.324219 428.734375 456.808594 427.558594 C 457.710938 430.128906 458.035156 431.855469 458.914062 433.222656 C 459.421875 434.011719 460.875 434.660156 461.8125 434.566406 Z M 600.15625 159.484375 C 600.933594 156.90625 601.578125 154.277344 601.929688 151.617188 C 601.984375 151.179688 600.414062 150.535156 598.949219 149.5625 C 598.273438 153.40625 597.785156 156.257812 597.214844 159.515625 C 598.4375 159.515625 600.082031 159.734375 600.15625 159.484375 Z M 156.332031 174.140625 C 156.835938 176.207031 157.347656 178.277344 157.855469 180.34375 C 158.207031 180.355469 158.5625 180.359375 158.917969 180.371094 C 160.5 178.140625 162.074219 175.910156 163.65625 173.679688 C 163.480469 173.304688 163.300781 172.929688 163.125 172.554688 C 160.863281 173.082031 158.597656 173.609375 156.332031 174.140625 Z M 205.648438 609.707031 C 203.535156 606.910156 201.648438 604.417969 199.46875 601.539062 C 198.402344 602.527344 197.679688 603.199219 196.90625 603.914062 C 199.03125 606.824219 200.8125 609.265625 202.8125 612 C 203.902344 611.117188 204.699219 610.472656 205.648438 609.707031 Z M 266.464844 623.816406 C 269.03125 625.621094 271.269531 627.191406 273.679688 628.894531 C 274.503906 627.683594 275.113281 626.800781 275.851562 625.714844 C 273.433594 623.933594 271.234375 622.308594 268.929688 620.605469 C 268.003906 621.816406 267.398438 622.601562 266.464844 623.816406 Z M 414.609375 400.257812 C 414.117188 400 412.519531 400.632812 412.382812 401.128906 C 411.574219 403.914062 414.484375 406.734375 417.328125 406.042969 C 418.597656 405.734375 419.824219 405.25 421.710938 404.636719 C 419.007812 402.929688 416.882812 401.449219 414.609375 400.257812 Z M 534.960938 274.464844 C 535.390625 274.332031 535.832031 274.191406 536.3125 274.039062 C 535.289062 270.90625 534.5 268.21875 533.503906 265.605469 C 533.265625 264.964844 532.378906 264.578125 531.78125 264.078125 C 531.492188 264.714844 530.890625 265.402344 530.972656 265.988281 C 531.109375 266.953125 531.269531 267.921875 531.433594 268.890625 C 532.765625 270.636719 533.949219 272.5 534.960938 274.464844 Z M 586.425781 596.792969 C 585.558594 596.21875 584.652344 595.617188 583.488281 594.839844 C 581.695312 597.433594 580.050781 599.824219 578.28125 602.394531 C 581.023438 604.816406 584.070312 602.628906 586.425781 596.792969 Z M 532.207031 133.925781 C 530.035156 135.460938 527.792969 137.042969 525.417969 138.726562 C 526.472656 140.167969 527.179688 141.136719 528.03125 142.300781 C 535.058594 136.558594 535.84375 136.527344 532.207031 133.925781 Z M 558.042969 217.566406 C 558.667969 216.863281 559.847656 216.128906 559.8125 215.457031 C 559.640625 212.09375 559.152344 208.742188 558.773438 205.382812 C 558.46875 205.21875 558.167969 205.046875 557.863281 204.878906 C 557.230469 205.625 556.105469 206.332031 556.042969 207.113281 C 555.8125 209.9375 555.808594 212.796875 556.039062 215.617188 C 556.097656 216.3125 557.347656 216.914062 558.042969 217.566406 Z M 584.382812 659.601562 C 583.695312 658.425781 582.992188 657.230469 582.265625 655.988281 C 579.675781 657.304688 577.464844 658.421875 575.027344 659.65625 C 576.738281 664.398438 578.828125 664.359375 584.382812 659.601562 Z M 396.558594 384.027344 C 394.75 383.222656 392.804688 382.570312 391.074219 381.546875 C 388.296875 379.914062 386.929688 380.816406 386.304688 383.960938 C 393.507812 387.972656 395.351562 388.027344 396.558594 384.027344 Z M 348.507812 197.132812 C 348.109375 196.960938 347.714844 196.789062 347.324219 196.613281 C 345.289062 199.144531 343.261719 201.667969 340.933594 204.574219 C 343.03125 205.507812 344.730469 206.269531 347.238281 207.390625 C 347.710938 203.558594 348.109375 200.34375 348.507812 197.132812 Z M 392.519531 632.429688 C 390.910156 634.457031 389.585938 636.71875 387.859375 639.339844 C 389.304688 640.1875 390.425781 640.847656 391.816406 641.648438 C 393.183594 638.96875 394.515625 636.597656 395.578125 634.121094 C 395.871094 633.449219 395.367188 632.433594 395.226562 631.582031 C 394.300781 631.84375 393.003906 631.8125 392.519531 632.429688 Z M 372.152344 562.804688 C 371.929688 563.550781 372.644531 564.585938 372.929688 565.484375 C 373.777344 565.035156 375.070312 564.796875 375.394531 564.101562 C 376.683594 561.351562 377.664062 558.460938 378.972656 555.074219 C 377.734375 554.605469 376.738281 554.230469 375.417969 553.726562 C 374.242188 556.921875 373.046875 559.820312 372.152344 562.804688 Z M 567.519531 264.714844 C 567.761719 263.734375 568.113281 262.773438 568.566406 261.839844 C 568.222656 261.578125 567.871094 261.320312 567.519531 261.050781 Z M 601.511719 338.027344 C 601.210938 339.320312 604.09375 341.355469 605.535156 343.058594 C 605.871094 342.878906 606.207031 342.699219 606.542969 342.515625 C 606.695312 340.914062 606.855469 339.3125 607.003906 337.707031 C 605.359375 337.496094 603.746094 337 602.296875 336.203125 C 601.941406 336.789062 601.660156 337.390625 601.511719 338.027344 Z M 203.40625 511.15625 C 201.375 514.851562 204.550781 515.128906 206.628906 516.746094 C 207.941406 513.636719 209.121094 510.859375 210.34375 507.941406 C 206.648438 505.554688 206.347656 505.816406 203.40625 511.15625 Z M 478.507812 693 C 478.546875 693.03125 478.582031 693.066406 478.621094 693.101562 C 479.210938 692.90625 479.800781 692.722656 480.410156 692.558594 C 482.015625 692.117188 483.601562 691.804688 485.179688 691.585938 C 486.972656 689.691406 488.757812 687.808594 490.609375 685.867188 C 488.046875 684.207031 484.988281 686.128906 478.507812 693 Z M 230.527344 342.804688 C 229.179688 341.648438 228.105469 340.722656 226.746094 339.5625 C 224.714844 342.171875 222.859375 344.539062 220.789062 347.195312 C 222.09375 348.429688 223.027344 349.316406 224.132812 350.363281 C 226.378906 347.707031 228.382812 345.34375 230.527344 342.804688 Z M 200.089844 632.691406 C 201.257812 635.722656 202.417969 638.714844 203.550781 641.648438 C 204.078125 639.945312 204.949219 638.359375 206.289062 636.988281 C 205.839844 636.007812 205.492188 634.957031 205.203125 633.917969 C 204.296875 630.734375 202.617188 630.714844 200.089844 632.691406 Z M 467.519531 557.976562 C 468.167969 556.152344 463.824219 552.296875 461.945312 552.96875 C 459.90625 553.691406 457.988281 554.746094 455.304688 555.984375 C 458.957031 557.300781 461.757812 558.488281 464.675781 559.253906 C 465.496094 559.472656 467.257812 558.691406 467.519531 557.976562 Z M 384.921875 682.160156 C 385.308594 684.945312 385.457031 687.789062 386.140625 690.492188 C 387.050781 694.09375 389.441406 694.828125 393.039062 692.675781 C 390.671875 689.035156 388.3125 685.410156 385.960938 681.777344 C 385.613281 681.90625 385.265625 682.035156 384.921875 682.160156 Z M 463.484375 642.523438 C 462.386719 651.253906 461.4375 651.722656 465.46875 652.878906 C 467.050781 650.777344 468.667969 648.625 470.597656 646.0625 C 467.929688 644.738281 465.777344 643.667969 463.484375 642.523438 Z M 176.46875 647.316406 C 176.007812 649.855469 175.550781 652.394531 175.136719 654.929688 C 175.609375 655.300781 176.167969 655.675781 176.824219 656.058594 C 177.78125 656.625 178.605469 657.421875 179.566406 657.988281 C 180.054688 658.28125 180.707031 658.324219 181.28125 658.480469 C 181.375 657.789062 181.773438 656.9375 181.515625 656.425781 C 179.949219 653.433594 178.257812 650.5 176.46875 647.316406 Z M 158.648438 453.460938 C 160.78125 459.972656 164.308594 461.753906 168.777344 458.792969 C 165.652344 452.964844 163.511719 451.796875 158.648438 453.460938 Z M 228.761719 496.953125 C 229.425781 493.945312 228.027344 492.996094 224.585938 493.390625 C 224.027344 496.910156 223.460938 500.417969 222.898438 503.964844 C 228.027344 504.359375 228.21875 504.199219 228.546875 499.679688 C 228.617188 498.769531 228.570312 497.835938 228.761719 496.953125 Z M 559.753906 456.78125 C 556.382812 459.011719 553.300781 461.050781 549.96875 463.265625 C 550.796875 464.578125 551.433594 465.589844 552.328125 466.988281 C 555.785156 464.742188 558.8125 462.78125 562.0625 460.667969 C 561.234375 459.269531 560.566406 458.148438 559.753906 456.78125 Z M 177.617188 468.335938 C 179.183594 468.496094 180.554688 468.921875 181.765625 469.539062 C 182.542969 468.164062 183.324219 466.78125 184.125 465.359375 C 182.898438 464.636719 181.882812 464.039062 180.65625 463.316406 C 179.625 465.019531 178.625 466.675781 177.617188 468.335938 Z M 229.398438 651.738281 C 229.089844 651.929688 228.792969 652.128906 228.472656 652.308594 C 229.335938 653.832031 230.292969 655.316406 231.203125 656.824219 C 231.257812 656.035156 231.175781 655.226562 230.917969 654.375 C 230.597656 653.324219 230.070312 652.464844 229.398438 651.738281 Z M 203.78125 238.679688 C 205.765625 237.59375 207.746094 236.488281 209.722656 235.378906 C 209.683594 234.71875 209.664062 234.058594 209.667969 233.40625 C 208.320312 232.667969 206.90625 231.691406 205.855469 231.988281 C 203.136719 232.769531 200.695312 234.539062 198.214844 235.863281 C 199.859375 240.710938 199.972656 240.769531 203.78125 238.679688 Z M 537.574219 280.808594 C 538.8125 284.710938 539.5 288.808594 539.570312 292.890625 C 540.417969 293.199219 541.304688 293.511719 542.214844 293.859375 C 540.617188 289.105469 539.289062 285.148438 537.753906 280.597656 C 537.695312 280.671875 537.632812 280.742188 537.574219 280.808594 Z M 301.460938 145.0625 C 303.109375 144.816406 304.6875 144.105469 307.121094 143.332031 C 305.644531 141.90625 304.371094 140.796875 303.265625 139.679688 L 297.617188 139.679688 C 297.136719 141.328125 297.09375 143.1875 296.796875 144.921875 C 298.351562 144.988281 299.941406 145.28125 301.460938 145.0625 Z M 262.894531 632.253906 C 258.851562 632.933594 256.445312 638.289062 258.410156 642.542969 C 260.621094 641.015625 262.566406 639.6875 264.5 638.328125 C 264.957031 638.003906 265.542969 637.65625 265.734375 637.1875 C 266.21875 635.980469 267.207031 634.09375 266.746094 633.578125 C 265.949219 632.667969 264.121094 632.046875 262.894531 632.253906 Z M 619.25 155.582031 C 617.84375 155.582031 616.464844 155.664062 615.097656 155.8125 C 619.011719 162.949219 621.113281 170.425781 621.113281 176.953125 L 623.5625 282.210938 C 642.554688 280.070312 657.3125 263.960938 657.3125 244.398438 L 657.3125 193.644531 C 657.3125 178.644531 648.632812 165.675781 636.019531 159.472656 C 630.964844 156.988281 625.273438 155.582031 619.25 155.582031 Z M 584.335938 698.574219 C 590.414062 698.46875 595.878906 696.894531 600.738281 694.277344 C 603.699219 717.570312 610.710938 758.726562 624.828125 777.789062 C 624.828125 777.789062 606.558594 783.878906 581.183594 767.640625 C 581.183594 767.640625 575.09375 796.058594 562.914062 803.167969 C 562.914062 803.167969 530.671875 760.789062 534.027344 700.042969 L 584.335938 698.574219 " fill-opacity="1" fill-rule="nonzero"/></g><path fill="#f7cd34" d="M 645.855469 426.757812 C 650.722656 426.476562 655.335938 425.273438 659.542969 423.335938 C 672.601562 417.304688 681.675781 404.101562 681.675781 388.765625 L 681.675781 338.011719 C 681.675781 323.097656 673.085938 310.1875 660.585938 303.949219 C 655.476562 301.398438 649.710938 299.949219 643.609375 299.949219 C 643.410156 299.949219 643.214844 299.964844 643.015625 299.964844 C 642.75 290.292969 642.570312 284.078125 642.523438 282.417969 C 642.496094 281.578125 641.804688 280.910156 640.957031 280.9375 C 640.113281 280.964844 639.449219 281.667969 639.476562 282.507812 C 639.519531 283.859375 641.136719 339.1875 642.40625 406.601562 C 642.464844 413.378906 642.523438 420.125 642.574219 426.800781 C 642.640625 426.808594 642.703125 426.808594 642.765625 426.808594 C 644.375 521.761719 644.953125 631.65625 639.546875 649.199219 C 629.953125 680.304688 613.882812 688.5625 613.730469 688.640625 C 612.976562 689.003906 612.675781 689.898438 613.027344 690.648438 C 613.027344 690.660156 613.027344 690.664062 613.03125 690.675781 C 613.292969 691.21875 613.835938 691.53125 614.398438 691.53125 C 614.625 691.53125 614.847656 691.476562 615.066406 691.378906 C 615.402344 691.210938 619.339844 689.210938 624.460938 683.679688 C 630.109375 677.566406 637.199219 667.148438 642.453125 650.097656 C 648.039062 632.003906 647.476562 521.886719 645.855469 426.757812 Z M 483.421875 313.382812 L 330.488281 320.867188 C 327.5 321.019531 325.253906 324.652344 325.460938 328.992188 C 325.675781 333.332031 328.273438 336.730469 331.253906 336.585938 L 484.1875 329.09375 C 487.175781 328.949219 489.425781 325.3125 489.214844 320.976562 C 489 316.636719 486.410156 313.238281 483.421875 313.382812 Z M 285.957031 304.019531 C 285.742188 299.671875 289.09375 295.984375 293.425781 295.777344 L 515.652344 284.894531 C 519.992188 284.679688 523.6875 288.023438 523.894531 292.367188 C 524.109375 296.707031 520.761719 300.398438 516.425781 300.609375 L 294.199219 311.488281 C 289.859375 311.699219 286.171875 308.351562 285.957031 304.019531 " fill-opacity="1" fill-rule="nonzero"/></svg>